<svg width="32" height="32" viewBox="0 0 32 32" fill="none" xmlns="http://www.w3.org/2000/svg">
<path d="M18.998 3.25C19.0827 3.25 19.1757 3.25232 19.2627 3.2627C19.3066 3.26794 19.3675 3.27695 19.4336 3.2959C19.4921 3.3127 19.6068 3.35105 19.7217 3.44141C19.8545 3.54594 19.9892 3.72527 20.0146 3.97363C20.037 4.19309 19.9614 4.3598 19.917 4.43945C19.8367 4.58322 19.7234 4.67987 19.6943 4.70508C19.4656 4.90371 19.357 4.94347 19.1426 5.17285C18.9731 5.35424 18.8444 5.56576 18.8066 5.83301C18.7739 6.06519 18.7989 6.41384 19.0371 6.91211L19.1533 7.13477L19.1611 7.14941L19.1689 7.16504L19.6533 8.13477L19.7959 8.36328C20.1427 8.86047 20.5789 9.11987 20.9512 9.40234C21.1856 9.58028 21.4786 9.87738 21.7959 10.2051C22.108 10.5273 22.4784 10.9152 22.9258 11.3652L24.5625 12.0479C25.9427 12.3491 26.9884 12.1409 27.8027 11.9668C28.1706 11.8882 28.6467 11.7747 29.043 11.8096C29.2732 11.8299 29.5371 11.9013 29.7715 12.0918C30.0041 12.2809 30.137 12.5303 30.2139 12.7773C30.3792 13.3089 30.2779 13.8063 30.0605 14.2432C29.8548 14.6567 29.5278 15.052 29.1748 15.4336C28.4104 16.26 27.5104 17.0553 26.4336 18.3145L25.8799 18.9619V18.9629C25.3118 19.6272 25.1069 19.8824 25.0107 20.1094L24.9756 20.2061C24.8941 20.4684 24.9088 20.7641 25.0068 21.7764L25.0908 22.6416C25.2588 24.3751 25.1671 25.8472 24.8887 27.0068C24.6158 28.1436 24.1388 29.0756 23.4512 29.5977C23.1989 29.7891 22.7975 30.057 22.2998 29.9541C22.069 29.9063 21.8939 29.7924 21.7754 29.7002C21.6606 29.6108 21.5492 29.5008 21.459 29.4121C21.1044 29.0637 20.5449 28.4896 19.1846 27.8633L18.4229 27.5127C18.1363 27.3808 17.6789 27.3031 17.1709 27.2695C16.6788 27.237 16.2439 27.25 15.998 27.25C15.755 27.25 15.2505 27.2366 14.6895 27.2695C14.1121 27.3034 13.6081 27.382 13.3271 27.5059L12.7236 27.8389L12.6992 27.8516L12.6748 27.8633C11.3273 28.4837 10.8696 29.0424 10.6289 29.3447C10.5707 29.4179 10.4807 29.5352 10.3965 29.624C10.3095 29.7158 10.141 29.8768 9.88184 29.9453C9.60149 30.0194 9.35551 29.952 9.18457 29.875C9.02553 29.8033 8.8753 29.6979 8.74316 29.5977C8.07617 29.0913 7.54366 28.1838 7.21582 27.0381C6.88256 25.8733 6.73867 24.3915 6.9082 22.6416L6.99219 21.7764C7.0903 20.7639 7.10498 20.4683 7.02344 20.2061C6.9429 19.9471 6.76841 19.7221 6.11914 18.9629V18.9619L5.56543 18.3145C4.48368 17.0495 3.56912 15.8498 2.9707 14.7939C2.67148 14.266 2.43699 13.7493 2.30566 13.2598C2.17522 12.7733 2.13295 12.2606 2.2832 11.7773C2.32716 11.636 2.3885 11.4473 2.48145 11.2959C2.53041 11.2162 2.62945 11.0765 2.80469 10.9766C3.01318 10.8577 3.24034 10.8442 3.43359 10.8965C3.59376 10.9399 3.70902 11.0222 3.76562 11.0654C3.8285 11.1135 3.88397 11.1654 3.92285 11.2031C4.02626 11.3034 4.06318 11.3467 4.17383 11.4502C4.50436 11.7593 5.1918 12.3035 6.78125 12.5381L8.19922 12.708C8.40272 12.4635 8.66779 12.1204 8.94922 11.749C9.31468 11.2668 9.73489 10.7026 9.96777 10.4697C10.1604 10.2771 10.3577 9.98147 10.7002 9.50195C11.0206 9.05344 11.4239 8.51358 11.9678 7.96973L12.8984 7.03809C14.6901 3.91693 17.6117 3.25 18.998 3.25Z" fill="black" stroke="black" stroke-width="1.5"/>
<rect x="19.9062" y="20.2903" width="3" height="3" transform="rotate(-25.4726 19.9062 20.2903)" fill="black"/>
</svg>
